<?xml version="1.0" encoding="UTF-8" standalone="no"?>
<!DOCTYPE svg PUBLIC "-//W3C//DTD SVG 1.1//EN" "http://www.w3.org/Graphics/SVG/1.1/DTD/svg11.dtd">
<svg width="100%" height="100%" viewBox="0 0 500 500" version="1.1" xmlns="http://www.w3.org/2000/svg" xmlns:xlink="http://www.w3.org/1999/xlink" xml:space="preserve" xmlns:serif="http://www.serif.com/" style="fill-rule:evenodd;clip-rule:evenodd;stroke-linejoin:round;stroke-miterlimit:2;">
    <g transform="matrix(1,0,0,1,-550,-550)">
        <g id="Münzsammler" transform="matrix(1.66667,0,0,1.66667,550,550)">
            <rect x="0" y="0" width="300" height="300" style="fill:none;"/>
            <rect id="Background" x="0" y="0" width="300" height="300" style="fill:rgb(109,109,109);"/>
            <clipPath id="_clip1">
                <rect id="Background1" serif:id="Background" x="0" y="0" width="300" height="300"/>
            </clipPath>
            <g clip-path="url(#_clip1)">
                <path d="M1858.47,874.903L120.235,228.935L185.036,73.264L1858.47,874.903Z" style="fill:rgb(53,53,53);fill-opacity:0.63;"/>
            </g>
            <g id="Münze" transform="matrix(0.6,0,0,0.6,-330,-330)">
                <circle cx="800" cy="800" r="140.576" style="fill:rgb(252,248,0);"/>
                <clipPath id="_clip2">
                    <circle cx="800" cy="800" r="140.576"/>
                </clipPath>
                <g clip-path="url(#_clip2)">
                    <path d="M741.607,897.564L770.359,873.592L772.809,822L808.297,800L800,754L821,714L847.329,696.599C816.98,685.62 784.802,680.031 760.376,687.93C736.21,695.744 713.733,713.845 695.424,740.326C676.735,773.491 672.109,808.928 685.811,840.622C693.266,866.785 715.008,887.599 741.607,897.564Z" style="fill:rgb(255,223,16);"/>
                    <g transform="matrix(1,0,5.55112e-17,1,-162.414,-114.145)">
                        <path d="M979.471,905.724C979.444,905.02 979.439,904.424 979.464,903.959C980.013,893.809 970.415,884.378 969.32,880.659C967.617,874.875 967.71,859.913 969.589,855.714C972.854,848.41 973.511,841.937 975.721,845.587C979.224,851.376 976.999,855.105 975.87,859.219C974.941,862.603 977.74,870.165 978.86,876.797C982.373,880.154 984.855,882.865 987.404,885.847C994.472,888.677 994.522,892.313 994.522,892.313L994.586,892.332L995.948,889.797C995.449,889.432 994.957,889.058 994.47,888.681C989.803,885.057 995.716,876.187 1001.11,872.093C1001.28,871.959 1001.46,871.835 1001.64,871.719C1001.6,871.673 1001.57,871.629 1001.53,871.585C1000.25,869.935 1005.54,867.153 1011.36,869.313C1019.43,872.583 1021.99,879.826 1020.33,884.424C1017.8,891.405 1009.86,893.48 1007.34,895.395C1007.12,895.558 1006.88,895.65 1006.63,895.677L1004.56,898.745C1006.02,901.427 1006.56,905.247 1005.96,910.988L1005.96,910.992L1005.96,911L1005.96,911.011L1005.96,911.023C1005.95,911.071 1005.95,911.119 1005.94,911.168C1005.1,919.006 1000.76,928.426 997.643,936.14C997.893,936.209 998.03,936.246 998.03,936.246L997.072,938.934C997.072,938.934 996.96,938.907 996.755,938.857C996.205,941.354 994.947,943.997 992.491,946.484C988.84,950.181 982.687,952.014 976.403,952.858L965.162,957.242L964.803,956.242C963.07,956.853 961.37,957.393 959.831,957.798C960.663,960.208 962.163,966.79 957.671,975.036C957.262,975.788 956.845,976.35 956.43,976.75C956.823,978.646 952.189,983.353 950.811,983.713C949.319,984.103 941.124,981.661 935.516,976.08C934.188,974.759 933.571,973.825 933.471,973.19C932.576,973.775 931.744,974.315 931.016,974.806C931.098,975.815 927.93,978.9 926.335,979.349C926.068,979.424 925.514,979.47 924.751,979.471L924.691,979.471C920.273,979.468 909.103,978.023 905.534,972.523C902.971,968.57 903.954,967.449 906.324,967.435L906.37,967.435L906.416,967.435C907.926,967.444 909.973,967.88 912.021,968.316L912.082,968.329L912.144,968.342L912.205,968.354L912.267,968.366L912.329,968.378L912.392,968.39L912.455,968.401L912.518,968.413L912.548,968.418L912.612,968.429L912.676,968.439L912.74,968.45L912.804,968.46L912.869,968.47L912.934,968.48L912.957,968.484C913.032,968.495 913.107,968.505 913.182,968.515L913.256,968.525L913.321,968.534L913.386,968.542L913.451,968.55L913.516,968.558L913.58,968.565L913.644,968.572C918.52,969.114 925.053,968.102 926.271,967.901C926.736,967.241 927.282,966.554 927.921,965.844C935.673,957.222 940.549,946.009 943.133,943.135C944.306,941.826 947.737,940.397 951.13,939.228L950.85,938.198C961.775,934.213 966.784,930.834 973.458,930.238C973.514,930.233 973.571,930.228 973.628,930.223C973.65,930.129 973.689,929.979 973.749,929.786C973.701,929.758 973.653,929.729 973.605,929.701C975.125,926.637 976.748,922.335 977.721,917.913C975.582,916.997 973.232,915.687 971.175,914.483C968.043,912.654 972.757,908.374 975.424,908.37C976.515,908.368 977.847,908.622 978.971,908.899C979.169,907.068 979.3,905.758 979.31,905.547C979.363,905.607 979.417,905.666 979.471,905.724ZM950.285,954.767C948.82,955.686 947.799,956.71 947.699,957.806C947.187,963.469 940.611,968.431 935.224,972.033C936.663,972.009 938.782,972.453 940.808,973.012C945.011,974.179 949.987,971.68 951.379,970.909C952.25,965.948 951.067,959.725 950.285,954.767Z" style="fill:rgb(214,170,0);fill-rule:nonzero;"/>
                    </g>
                    <path d="M800,659.424C877.586,659.424 940.576,722.414 940.576,800C940.576,877.586 877.586,940.576 800,940.576C722.414,940.576 659.424,877.586 659.424,800C659.424,722.414 722.414,659.424 800,659.424ZM800,686.296C862.755,686.296 913.704,737.245 913.704,800C913.704,862.755 862.755,913.704 800,913.704C737.245,913.704 686.296,862.755 686.296,800C686.296,737.245 737.245,686.296 800,686.296Z" style="fill:rgb(214,170,0);"/>
                </g>
            </g>
        </g>
    </g>
</svg>
