<?xml version="1.0" encoding="UTF-8" standalone="no"?>
<!DOCTYPE svg PUBLIC "-//W3C//DTD SVG 1.1//EN" "http://www.w3.org/Graphics/SVG/1.1/DTD/svg11.dtd">
<svg width="100%" height="100%" viewBox="0 0 253 253" version="1.1" xmlns="http://www.w3.org/2000/svg" xmlns:xlink="http://www.w3.org/1999/xlink" xml:space="preserve" xmlns:serif="http://www.serif.com/" style="fill-rule:evenodd;clip-rule:evenodd;stroke-linejoin:round;stroke-miterlimit:2;">
    <rect x="0" y="0" width="253" height="253" style="fill:white;"/>
    <g transform="matrix(1,0,0,1,-110,88)">
        <circle cx="126.5" cy="16.5" r="5.5" style="fill:rgb(42,42,42);"/>
    </g>
    <g transform="matrix(1,0,0,1,-110,99)">
        <circle cx="126.5" cy="16.5" r="5.5" style="fill:rgb(42,42,42);"/>
    </g>
    <g transform="matrix(1,0,0,1,-110,121)">
        <circle cx="126.5" cy="16.5" r="5.5" style="fill:rgb(42,42,42);"/>
    </g>
    <g transform="matrix(1,0,0,1,-110,132)">
        <circle cx="126.5" cy="16.5" r="5.5" style="fill:rgb(42,42,42);"/>
    </g>
    <g transform="matrix(1,0,0,1,-99,88)">
        <circle cx="126.5" cy="16.5" r="5.5" style="fill:rgb(42,42,42);"/>
    </g>
    <g transform="matrix(1,0,0,1,-99,132)">
        <circle cx="126.5" cy="16.5" r="5.5" style="fill:rgb(42,42,42);"/>
    </g>
    <g transform="matrix(1,0,0,1,-88,88)">
        <circle cx="126.5" cy="16.5" r="5.5" style="fill:rgb(42,42,42);"/>
    </g>
    <g transform="matrix(1,0,0,1,-88,99)">
        <circle cx="126.5" cy="16.5" r="5.5" style="fill:rgb(42,42,42);"/>
    </g>
    <g transform="matrix(1,0,0,1,-88,110)">
        <circle cx="126.5" cy="16.5" r="5.5" style="fill:rgb(42,42,42);"/>
    </g>
    <g transform="matrix(1,0,0,1,-88,121)">
        <circle cx="126.5" cy="16.5" r="5.5" style="fill:rgb(42,42,42);"/>
    </g>
    <g transform="matrix(1,0,0,1,-88,132)">
        <circle cx="126.5" cy="16.5" r="5.5" style="fill:rgb(42,42,42);"/>
    </g>
    <g transform="matrix(1,0,0,1,-77,88)">
        <circle cx="126.5" cy="16.5" r="5.5" style="fill:rgb(42,42,42);"/>
    </g>
    <g transform="matrix(1,0,0,1,-77,110)">
        <circle cx="126.5" cy="16.5" r="5.5" style="fill:rgb(42,42,42);"/>
    </g>
    <g transform="matrix(1,0,0,1,-77,132)">
        <circle cx="126.5" cy="16.5" r="5.5" style="fill:rgb(42,42,42);"/>
    </g>
    <g transform="matrix(1,0,0,1,-66,88)">
        <circle cx="126.5" cy="16.5" r="5.5" style="fill:rgb(42,42,42);"/>
    </g>
    <g transform="matrix(1,0,0,1,-66,99)">
        <circle cx="126.5" cy="16.5" r="5.5" style="fill:rgb(42,42,42);"/>
    </g>
    <g transform="matrix(1,0,0,1,-66,121)">
        <circle cx="126.5" cy="16.5" r="5.5" style="fill:rgb(42,42,42);"/>
    </g>
    <g transform="matrix(1,0,0,1,-66,132)">
        <circle cx="126.5" cy="16.5" r="5.5" style="fill:rgb(42,42,42);"/>
    </g>
    <g transform="matrix(1,0,0,1,-55,99)">
        <circle cx="126.5" cy="16.5" r="5.5" style="fill:rgb(42,42,42);"/>
    </g>
    <g transform="matrix(1,0,0,1,-44,88)">
        <circle cx="126.5" cy="16.5" r="5.5" style="fill:rgb(42,42,42);"/>
    </g>
    <g transform="matrix(1,0,0,1,-44,110)">
        <circle cx="126.5" cy="16.5" r="5.5" style="fill:rgb(42,42,42);"/>
    </g>
    <g transform="matrix(1,0,0,1,-44,132)">
        <circle cx="126.5" cy="16.5" r="5.5" style="fill:rgb(42,42,42);"/>
    </g>
    <g transform="matrix(1,0,0,1,-33,88)">
        <circle cx="126.5" cy="16.5" r="5.5" style="fill:rgb(42,42,42);"/>
    </g>
    <g transform="matrix(1,0,0,1,-22,11)">
        <circle cx="126.5" cy="16.5" r="5.5" style="fill:rgb(42,42,42);"/>
    </g>
    <g transform="matrix(1,0,0,1,-22,33)">
        <circle cx="126.5" cy="16.5" r="5.5" style="fill:rgb(42,42,42);"/>
    </g>
    <g transform="matrix(1,0,0,1,-22,55)">
        <circle cx="126.5" cy="16.5" r="5.5" style="fill:rgb(42,42,42);"/>
    </g>
    <g transform="matrix(1,0,0,1,-22,66)">
        <circle cx="126.5" cy="16.5" r="5.5" style="fill:rgb(42,42,42);"/>
    </g>
    <g transform="matrix(1,0,0,1,-22,88)">
        <circle cx="126.5" cy="16.5" r="5.5" style="fill:rgb(42,42,42);"/>
    </g>
    <g transform="matrix(1,0,0,1,-22,143)">
        <circle cx="126.5" cy="16.5" r="5.5" style="fill:rgb(42,42,42);"/>
    </g>
    <g transform="matrix(1,0,0,1,-22,154)">
        <circle cx="126.5" cy="16.5" r="5.5" style="fill:rgb(42,42,42);"/>
    </g>
    <g transform="matrix(1,0,0,1,-22,176)">
        <circle cx="126.5" cy="16.5" r="5.5" style="fill:rgb(42,42,42);"/>
    </g>
    <g transform="matrix(1,0,0,1,-22,187)">
        <circle cx="126.5" cy="16.5" r="5.5" style="fill:rgb(42,42,42);"/>
    </g>
    <g transform="matrix(1,0,0,1,-22,198)">
        <circle cx="126.5" cy="16.5" r="5.5" style="fill:rgb(42,42,42);"/>
    </g>
    <g transform="matrix(1,0,0,1,-22,209)">
        <circle cx="126.5" cy="16.5" r="5.5" style="fill:rgb(42,42,42);"/>
    </g>
    <g transform="matrix(1,0,0,1,-22,220)">
        <circle cx="126.5" cy="16.5" r="5.5" style="fill:rgb(42,42,42);"/>
    </g>
    <g transform="matrix(1,0,0,1,-11,11)">
        <circle cx="126.5" cy="16.5" r="5.5" style="fill:rgb(42,42,42);"/>
    </g>
    <g transform="matrix(1,0,0,1,-11,33)">
        <circle cx="126.5" cy="16.5" r="5.5" style="fill:rgb(42,42,42);"/>
    </g>
    <g transform="matrix(1,0,0,1,-11,44)">
        <circle cx="126.5" cy="16.5" r="5.5" style="fill:rgb(42,42,42);"/>
    </g>
    <g transform="matrix(1,0,0,1,-11,77)">
        <circle cx="126.5" cy="16.5" r="5.5" style="fill:rgb(42,42,42);"/>
    </g>
    <g transform="matrix(1,0,0,1,-11,110)">
        <circle cx="126.5" cy="16.5" r="5.5" style="fill:rgb(42,42,42);"/>
    </g>
    <g transform="matrix(1,0,0,1,-11,132)">
        <circle cx="126.5" cy="16.5" r="5.5" style="fill:rgb(42,42,42);"/>
    </g>
    <g transform="matrix(1,0,0,1,-11,143)">
        <circle cx="126.5" cy="16.5" r="5.5" style="fill:rgb(42,42,42);"/>
    </g>
    <g transform="matrix(1,0,0,1,-11,187)">
        <circle cx="126.5" cy="16.5" r="5.5" style="fill:rgb(42,42,42);"/>
    </g>
    <g transform="matrix(1,0,0,1,-11,209)">
        <circle cx="126.5" cy="16.5" r="5.5" style="fill:rgb(42,42,42);"/>
    </g>
    <circle cx="126.5" cy="16.5" r="5.5" style="fill:rgb(42,42,42);"/>
    <g transform="matrix(1,0,0,1,0,11)">
        <circle cx="126.5" cy="16.5" r="5.5" style="fill:rgb(42,42,42);"/>
    </g>
    <g transform="matrix(1,0,0,1,0,22)">
        <circle cx="126.5" cy="16.5" r="5.5" style="fill:rgb(42,42,42);"/>
    </g>
    <g transform="matrix(1,0,0,1,0,66)">
        <circle cx="126.5" cy="16.5" r="5.5" style="fill:rgb(42,42,42);"/>
    </g>
    <g transform="matrix(1,0,0,1,0,99)">
        <circle cx="126.5" cy="16.5" r="5.5" style="fill:rgb(42,42,42);"/>
    </g>
    <g transform="matrix(1,0,0,1,0,132)">
        <circle cx="126.5" cy="16.5" r="5.5" style="fill:rgb(42,42,42);"/>
    </g>
    <g transform="matrix(1,0,0,1,0,143)">
        <circle cx="126.5" cy="16.5" r="5.5" style="fill:rgb(42,42,42);"/>
    </g>
    <g transform="matrix(1,0,0,1,0,165)">
        <circle cx="126.5" cy="16.5" r="5.5" style="fill:rgb(42,42,42);"/>
    </g>
    <g transform="matrix(1,0,0,1,0,176)">
        <circle cx="126.5" cy="16.5" r="5.5" style="fill:rgb(42,42,42);"/>
    </g>
    <g transform="matrix(1,0,0,1,0,187)">
        <circle cx="126.5" cy="16.5" r="5.5" style="fill:rgb(42,42,42);"/>
    </g>
    <g transform="matrix(1,0,0,1,0,209)">
        <circle cx="126.5" cy="16.5" r="5.5" style="fill:rgb(42,42,42);"/>
    </g>
    <g transform="matrix(1,0,0,1,0,220)">
        <circle cx="126.5" cy="16.5" r="5.5" style="fill:rgb(42,42,42);"/>
    </g>
    <g transform="matrix(1,0,0,1,11,-1.1724e-13)">
        <circle cx="126.5" cy="16.5" r="5.5" style="fill:rgb(42,42,42);"/>
    </g>
    <g transform="matrix(1,0,0,1,11,22)">
        <circle cx="126.5" cy="16.5" r="5.5" style="fill:rgb(42,42,42);"/>
    </g>
    <g transform="matrix(1,0,0,1,11,55)">
        <circle cx="126.5" cy="16.5" r="5.5" style="fill:rgb(42,42,42);"/>
    </g>
    <g transform="matrix(1,0,0,1,11,88)">
        <circle cx="126.5" cy="16.5" r="5.5" style="fill:rgb(42,42,42);"/>
    </g>
    <g transform="matrix(1,0,0,1,11,99)">
        <circle cx="126.5" cy="16.5" r="5.5" style="fill:rgb(42,42,42);"/>
    </g>
    <g transform="matrix(1,0,0,1,11,121)">
        <circle cx="126.5" cy="16.5" r="5.5" style="fill:rgb(42,42,42);"/>
    </g>
    <g transform="matrix(1,0,0,1,11,154)">
        <circle cx="126.5" cy="16.5" r="5.5" style="fill:rgb(42,42,42);"/>
    </g>
    <g transform="matrix(1,0,0,1,11,176)">
        <circle cx="126.5" cy="16.5" r="5.5" style="fill:rgb(42,42,42);"/>
    </g>
    <g transform="matrix(1,0,0,1,11,187)">
        <circle cx="126.5" cy="16.5" r="5.5" style="fill:rgb(42,42,42);"/>
    </g>
    <g transform="matrix(1,0,0,1,11,209)">
        <circle cx="126.5" cy="16.5" r="5.5" style="fill:rgb(42,42,42);"/>
    </g>
    <g transform="matrix(1,0,0,1,22,-1.27898e-13)">
        <circle cx="126.5" cy="16.5" r="5.5" style="fill:rgb(42,42,42);"/>
    </g>
    <g transform="matrix(1,0,0,1,22,11)">
        <circle cx="126.5" cy="16.5" r="5.5" style="fill:rgb(42,42,42);"/>
    </g>
    <g transform="matrix(1,0,0,1,22,22)">
        <circle cx="126.5" cy="16.5" r="5.5" style="fill:rgb(42,42,42);"/>
    </g>
    <g transform="matrix(1,0,0,1,22,33)">
        <circle cx="126.5" cy="16.5" r="5.5" style="fill:rgb(42,42,42);"/>
    </g>
    <g transform="matrix(1,0,0,1,22,44)">
        <circle cx="126.5" cy="16.5" r="5.5" style="fill:rgb(42,42,42);"/>
    </g>
    <g transform="matrix(1,0,0,1,22,66)">
        <circle cx="126.5" cy="16.5" r="5.5" style="fill:rgb(42,42,42);"/>
    </g>
    <g transform="matrix(1,0,0,1,22,99)">
        <circle cx="126.5" cy="16.5" r="5.5" style="fill:rgb(42,42,42);"/>
    </g>
    <g transform="matrix(1,0,0,1,22,110)">
        <circle cx="126.5" cy="16.5" r="5.5" style="fill:rgb(42,42,42);"/>
    </g>
    <g transform="matrix(1,0,0,1,22,121)">
        <circle cx="126.5" cy="16.5" r="5.5" style="fill:rgb(42,42,42);"/>
    </g>
    <g transform="matrix(1,0,0,1,22,132)">
        <circle cx="126.5" cy="16.5" r="5.5" style="fill:rgb(42,42,42);"/>
    </g>
    <g transform="matrix(1,0,0,1,22,143)">
        <circle cx="126.5" cy="16.5" r="5.5" style="fill:rgb(42,42,42);"/>
    </g>
    <g transform="matrix(1,0,0,1,22,187)">
        <circle cx="126.5" cy="16.5" r="5.5" style="fill:rgb(42,42,42);"/>
    </g>
    <g transform="matrix(1,0,0,1,22,198)">
        <circle cx="126.5" cy="16.5" r="5.5" style="fill:rgb(42,42,42);"/>
    </g>
    <g transform="matrix(1,0,0,1,22,209)">
        <circle cx="126.5" cy="16.5" r="5.5" style="fill:rgb(42,42,42);"/>
    </g>
    <g transform="matrix(1,0,0,1,22,220)">
        <circle cx="126.5" cy="16.5" r="5.5" style="fill:rgb(42,42,42);"/>
    </g>
    <g transform="matrix(1,0,0,1,33,88)">
        <circle cx="126.5" cy="16.5" r="5.5" style="fill:rgb(42,42,42);"/>
    </g>
    <g transform="matrix(1,0,0,1,33,121)">
        <circle cx="126.5" cy="16.5" r="5.5" style="fill:rgb(42,42,42);"/>
    </g>
    <g transform="matrix(1,0,0,1,33,132)">
        <circle cx="126.5" cy="16.5" r="5.5" style="fill:rgb(42,42,42);"/>
    </g>
    <g transform="matrix(1,0,0,1,33,143)">
        <circle cx="126.5" cy="16.5" r="5.5" style="fill:rgb(42,42,42);"/>
    </g>
    <g transform="matrix(1,0,0,1,33,187)">
        <circle cx="126.5" cy="16.5" r="5.5" style="fill:rgb(42,42,42);"/>
    </g>
    <g transform="matrix(1,0,0,1,33,209)">
        <circle cx="126.5" cy="16.5" r="5.5" style="fill:rgb(42,42,42);"/>
    </g>
    <g transform="matrix(1,0,0,1,44,99)">
        <circle cx="126.5" cy="16.5" r="5.5" style="fill:rgb(42,42,42);"/>
    </g>
    <g transform="matrix(1,0,0,1,44,132)">
        <circle cx="126.5" cy="16.5" r="5.5" style="fill:rgb(42,42,42);"/>
    </g>
    <g transform="matrix(1,0,0,1,44,187)">
        <circle cx="126.5" cy="16.5" r="5.5" style="fill:rgb(42,42,42);"/>
    </g>
    <g transform="matrix(1,0,0,1,44,198)">
        <circle cx="126.5" cy="16.5" r="5.5" style="fill:rgb(42,42,42);"/>
    </g>
    <g transform="matrix(1,0,0,1,44,209)">
        <circle cx="126.5" cy="16.5" r="5.5" style="fill:rgb(42,42,42);"/>
    </g>
    <g transform="matrix(1,0,0,1,55,88)">
        <circle cx="126.5" cy="16.5" r="5.5" style="fill:rgb(42,42,42);"/>
    </g>
    <g transform="matrix(1,0,0,1,55,143)">
        <circle cx="126.5" cy="16.5" r="5.5" style="fill:rgb(42,42,42);"/>
    </g>
    <g transform="matrix(1,0,0,1,55,165)">
        <circle cx="126.5" cy="16.5" r="5.5" style="fill:rgb(42,42,42);"/>
    </g>
    <g transform="matrix(1,0,0,1,55,209)">
        <circle cx="126.5" cy="16.5" r="5.5" style="fill:rgb(42,42,42);"/>
    </g>
    <g transform="matrix(1,0,0,1,55,220)">
        <circle cx="126.5" cy="16.5" r="5.5" style="fill:rgb(42,42,42);"/>
    </g>
    <g transform="matrix(1,0,0,1,66,99)">
        <circle cx="126.5" cy="16.5" r="5.5" style="fill:rgb(42,42,42);"/>
    </g>
    <g transform="matrix(1,0,0,1,66,143)">
        <circle cx="126.5" cy="16.5" r="5.5" style="fill:rgb(42,42,42);"/>
    </g>
    <g transform="matrix(1,0,0,1,66,187)">
        <circle cx="126.5" cy="16.5" r="5.5" style="fill:rgb(42,42,42);"/>
    </g>
    <g transform="matrix(1,0,0,1,77,88)">
        <circle cx="126.5" cy="16.5" r="5.5" style="fill:rgb(42,42,42);"/>
    </g>
    <g transform="matrix(1,0,0,1,77,99)">
        <circle cx="126.5" cy="16.5" r="5.5" style="fill:rgb(42,42,42);"/>
    </g>
    <g transform="matrix(1,0,0,1,77,110)">
        <circle cx="126.5" cy="16.5" r="5.5" style="fill:rgb(42,42,42);"/>
    </g>
    <g transform="matrix(1,0,0,1,77,121)">
        <circle cx="126.5" cy="16.5" r="5.5" style="fill:rgb(42,42,42);"/>
    </g>
    <g transform="matrix(1,0,0,1,77,132)">
        <circle cx="126.5" cy="16.5" r="5.5" style="fill:rgb(42,42,42);"/>
    </g>
    <g transform="matrix(1,0,0,1,77,154)">
        <circle cx="126.5" cy="16.5" r="5.5" style="fill:rgb(42,42,42);"/>
    </g>
    <g transform="matrix(1,0,0,1,77,165)">
        <circle cx="126.5" cy="16.5" r="5.5" style="fill:rgb(42,42,42);"/>
    </g>
    <g transform="matrix(1,0,0,1,77,176)">
        <circle cx="126.5" cy="16.5" r="5.5" style="fill:rgb(42,42,42);"/>
    </g>
    <g transform="matrix(1,0,0,1,77,187)">
        <circle cx="126.5" cy="16.5" r="5.5" style="fill:rgb(42,42,42);"/>
    </g>
    <g transform="matrix(1,0,0,1,88,99)">
        <circle cx="126.5" cy="16.5" r="5.5" style="fill:rgb(42,42,42);"/>
    </g>
    <g transform="matrix(1,0,0,1,88,110)">
        <circle cx="126.5" cy="16.5" r="5.5" style="fill:rgb(42,42,42);"/>
    </g>
    <g transform="matrix(1,0,0,1,88,121)">
        <circle cx="126.5" cy="16.5" r="5.5" style="fill:rgb(42,42,42);"/>
    </g>
    <g transform="matrix(1,0,0,1,88,143)">
        <circle cx="126.5" cy="16.5" r="5.5" style="fill:rgb(42,42,42);"/>
    </g>
    <g transform="matrix(1,0,0,1,88,165)">
        <circle cx="126.5" cy="16.5" r="5.5" style="fill:rgb(42,42,42);"/>
    </g>
    <g transform="matrix(1,0,0,1,88,187)">
        <circle cx="126.5" cy="16.5" r="5.5" style="fill:rgb(42,42,42);"/>
    </g>
    <g transform="matrix(1,0,0,1,88,198)">
        <circle cx="126.5" cy="16.5" r="5.5" style="fill:rgb(42,42,42);"/>
    </g>
    <g transform="matrix(1,0,0,1,88,209)">
        <circle cx="126.5" cy="16.5" r="5.5" style="fill:rgb(42,42,42);"/>
    </g>
    <g transform="matrix(1,0,0,1,99,88)">
        <circle cx="126.5" cy="16.5" r="5.5" style="fill:rgb(42,42,42);"/>
    </g>
    <g transform="matrix(1,0,0,1,99,110)">
        <circle cx="126.5" cy="16.5" r="5.5" style="fill:rgb(42,42,42);"/>
    </g>
    <g transform="matrix(1,0,0,1,99,132)">
        <circle cx="126.5" cy="16.5" r="5.5" style="fill:rgb(42,42,42);"/>
    </g>
    <g transform="matrix(1,0,0,1,99,143)">
        <circle cx="126.5" cy="16.5" r="5.5" style="fill:rgb(42,42,42);"/>
    </g>
    <g transform="matrix(1,0,0,1,99,154)">
        <circle cx="126.5" cy="16.5" r="5.5" style="fill:rgb(42,42,42);"/>
    </g>
    <g transform="matrix(1,0,0,1,99,165)">
        <circle cx="126.5" cy="16.5" r="5.5" style="fill:rgb(42,42,42);"/>
    </g>
    <g transform="matrix(1,0,0,1,99,220)">
        <circle cx="126.5" cy="16.5" r="5.5" style="fill:rgb(42,42,42);"/>
    </g>
    <g transform="matrix(1,0,0,1,110,99)">
        <circle cx="126.5" cy="16.5" r="5.5" style="fill:rgb(42,42,42);"/>
    </g>
    <g transform="matrix(1,0,0,1,110,143)">
        <circle cx="126.5" cy="16.5" r="5.5" style="fill:rgb(42,42,42);"/>
    </g>
    <g transform="matrix(1,0,0,1,110,176)">
        <circle cx="126.5" cy="16.5" r="5.5" style="fill:rgb(42,42,42);"/>
    </g>
    <g transform="matrix(3,0,0,3,-176,3.97904e-13)">
        <circle cx="126.5" cy="16.5" r="5.5" style="fill:rgb(42,42,42);"/>
    </g>
    <g transform="matrix(3,0,0,3,-330,1.56319e-13)">
        <circle cx="126.5" cy="16.5" r="5.5" style="fill:rgb(42,42,42);"/>
    </g>
    <g transform="matrix(3,0,0,3,-330,154)">
        <circle cx="126.5" cy="16.5" r="5.5" style="fill:rgb(42,42,42);"/>
    </g>
    <path d="M49.5,11C70.749,11 88,28.251 88,49.5C88,70.749 70.749,88 49.5,88C28.251,88 11,70.749 11,49.5C11,28.251 28.251,11 49.5,11ZM49.5,22.108C64.618,22.108 76.892,34.382 76.892,49.5C76.892,64.618 64.618,76.892 49.5,76.892C34.382,76.892 22.108,64.618 22.108,49.5C22.108,34.382 34.382,22.108 49.5,22.108Z" style="fill:rgb(42,42,42);"/>
    <g transform="matrix(1,0,0,1,154,-3.05533e-13)">
        <path d="M49.5,11C70.749,11 88,28.251 88,49.5C88,70.749 70.749,88 49.5,88C28.251,88 11,70.749 11,49.5C11,28.251 28.251,11 49.5,11ZM49.5,22.108C64.618,22.108 76.892,34.382 76.892,49.5C76.892,64.618 64.618,76.892 49.5,76.892C34.382,76.892 22.108,64.618 22.108,49.5C22.108,34.382 34.382,22.108 49.5,22.108Z" style="fill:rgb(42,42,42);"/>
    </g>
    <g transform="matrix(1,0,0,1,-1.98952e-13,154)">
        <path d="M49.5,11C70.749,11 88,28.251 88,49.5C88,70.749 70.749,88 49.5,88C28.251,88 11,70.749 11,49.5C11,28.251 28.251,11 49.5,11ZM49.5,22.108C64.618,22.108 76.892,34.382 76.892,49.5C76.892,64.618 64.618,76.892 49.5,76.892C34.382,76.892 22.108,64.618 22.108,49.5C22.108,34.382 34.382,22.108 49.5,22.108Z" style="fill:rgb(42,42,42);"/>
    </g>
</svg>
